{"title":"NatBornKillersDC","uid":14718695,"size":1393383605,"categoryP":"video","categoryS":"movies","magnet":"?xt=urn:btih:bfb0f917832fb0d53d8004745d52817612c5ed7a&amp;dn=NatBornKillersDC&amp;tr=udp%3A%2F%2Ftracker.leechers-paradise.org%3A6969&amp;tr=udp%3A%2F%2Fzer0day.ch%3A1337&amp;tr=udp%3A%2F%2Fopen.demonii.com%3A1337&amp;tr=udp%3A%2F%2Ftracker.coppersurfer.tk%3A6969&amp;tr=udp%3A%2F%2Fexodus.desync.com%3A6969","seeders":0,"leechers":1,"uploader":"dascuba","files":1,"time":1464489135,"description":"Natural Born Killers (1994)\r\nR | 1h 58min | Crime, Drama | 26 August 1994 (USA)\r\nTwo victims of traumatized childhoods become lovers and psychopathic serial murderers irresponsibly glorified by the mass media.\r\nDirector: Oliver Stone\r\nWriters: Quentin Tarantino (story), David Veloz (screenplay) |\r\nStars: Woody Harrelson, Juliette Lewis, Tom Sizemore |\r\n\r\nGeneral\r\nComplete name                            : NatBornKillersDCNATURAL_BORN_KILLERS_DC_DISC1_Title1.mp4\r\nFormat                                   : MPEG-4\r\nFormat profile                           : Base Media\r\nCodec ID                                 : isom (isom/iso2/avc1/mp41)\r\nFile size                                : 1.30 GiB\r\nDuration                                 : 2h 1mn\r\nOverall bit rate                         : 1 524 Kbps\r\nMovie name                               : NATURAL_BORN_KILLERS_DC_DISC1\r\nGenre                                    : Crime\r\nWriting application                      : Lavf54.6.100\r\n\r\nVideo\r\nID                                       : 1\r\nFormat                                   : AVC\r\nFormat/Info                              : Advanced Video Codec\r\nFormat profile                           :   \r\nFormat settings, CABAC                   : No\r\nFormat settings, ReFrames                : 6 frames\r\nFormat settings, GOP                     : M=1, N=60\r\nCodec ID                                 : avc1\r\nCodec ID/Info                            : Advanced Video Coding\r\nDuration                                 : 2h 1mn\r\nBit rate                                 : 1 201 Kbps\r\nWidth                                    : 720 pixels\r\nHeight                                   : 404 pixels\r\nDisplay aspect ratio                     : 16:9\r\nFrame rate mode                          : Constant\r\nFrame rate                               : 29.970 (30000/1001) fps\r\nColor space                              : YUV\r\nChroma subsampling                       : 4:2:0\r\nBit depth                                : 8 bits\r\nScan type                                : Progressive\r\nBits/(Pixel*Frame)                       : 0.138\r\nStream size                              : 1.02 GiB (79%)\r\n\r\nAudio\r\nID                                       : 2\r\nFormat                                   : AAC\r\nFormat/Info                              : Advanced Audio Codec\r\nFormat profile                           : LC\r\nCodec ID                                 : 40\r\nDuration                                 : 2h 1mn\r\nBit rate mode                            : Constant\r\nBit rate                                 : 317 Kbps\r\nChannel(s)                               : 2 channels\r\nChannel(s)_Original                      : 6 channels\r\nChannel positions                        : Front: L C R, Side: L R, LFE\r\nSampling rate                            : 44.1 KHz\r\nFrame rate                               : 43.066 fps (1024 spf)\r\nCompression mode                         : Lossy\r\nStream size                              : 276 MiB (21%)\r\nDefault                                  : Yes\r\nAlternate group                          : 1","torrent":{"xt":"urn:btih:bfb0f917832fb0d53d8004745d52817612c5ed7a","amp;dn":"NatBornKillersDC","amp;tr":["udp%3A%2F%2Ftracker.leechers-paradise.org%3A6969","udp%3A%2F%2Fzer0day.ch%3A1337","udp%3A%2F%2Fopen.demonii.com%3A1337","udp%3A%2F%2Ftracker.coppersurfer.tk%3A6969","udp%3A%2F%2Fexodus.desync.com%3A6969"],"infoHash":"bfb0f917832fb0d53d8004745d52817612c5ed7a","infoHashBuffer":{"type":"Buffer","data":[191,176,249,23,131,47,176,213,61,128,4,116,93,82,129,118,18,197,237,122]},"announce":[],"urlList":[]}}